<svg height="512pt" viewBox="0 0 512 512.001" width="512pt" xmlns="http://www.w3.org/2000/svg"><path d="m475.402344 154.699219c-4.199219-3-9.304688-3.601563-14.101563-1.5l-54.300781 21.601562-90 36-145.300781-57.601562c-3.296875-1.199219-6.898438-1.5-9.898438-.601563l-151 45c-6.300781 1.800782-10.800781 7.800782-10.800781 14.402344v270c0 4.800781 2.101562 9.300781 6 12 3.902344 3 8.699219 3.597656 13.199219 2.398438l146.199219-43.5 145.902343 57.902343c1.800781.898438 3.898438 1.199219 5.699219 1.199219 1.5 0 3-.300781 4.199219-.601562l85.800781-25.796876 64.199219-19.203124c6.300781-1.796876 10.800781-7.796876 10.800781-14.398438v-285c0-5.101562-2.402344-9.601562-6.597656-12.300781zm0 0" fill="#ede9e8"/><path d="m475.402344 154.699219c-4.199219-3-9.304688-3.601563-14.101563-1.5l-54.300781 21.601562-90 36-76-30.128906v302.226563l70.300781 27.898437c1.800781.902344 3.898438 1.203125 5.699219 1.203125 1.5 0 3-.300781 4.199219-.601562l85.800781-25.800782 64.199219-19.199218c6.300781-1.800782 10.800781-7.800782 10.800781-14.398438v-285c0-5.101562-2.402344-9.601562-6.597656-12.300781zm0 0" fill="#dfd7d5"/><path d="m302 391.101562-4.5 13.089844 4.5 12.410156v58.199219l-61-24.199219-60-23.800781v-63.902343l6-11.207032-6-14.292968v-148.199219l60 23.800781 61 24.199219zm0 0" fill="#56c225"/><path d="m302 391.101562-4.5 13.089844 4.5 12.410156v58.199219l-61-24.199219v-237.601562l61 24.199219zm0 0" fill="#49a520"/><path d="m407 207.199219-75 30v149.699219l4.5 9.902343-4.5 21.300781v58.796876l120-36v-251.699219zm0 0" fill="#49a520"/><path d="m151 187.097656-121 36.003906v238.796876l121-36v-58.800782l-4.5-9.898437 4.5-21.300781zm0 0" fill="#56c225"/><path d="m60.628906 378.304688c-2.371094-7.941407 2.125-16.304688 10.066406-18.675782l15.367188-4.308594c7.984375-2.402343 16.289062 2.109376 18.679688 10.0625 2.371093 7.9375-2.125 16.304688-10.066407 18.675782l-14.367187 4.308594c-8.082032 2.390624-17.335938-2.246094-19.679688-10.0625zm0 0" fill="#68544f"/><path d="m261.199219 368.597656-28-10.796875c-7.796875-3.300781-16.5.601563-19.496094 8.101563-3.300781 7.796875.597656 16.5 8.398437 19.496094l27.699219 10.800781c7.800781 3.300781 16.5-.597657 19.5-8.097657 3.300781-7.800781-.601562-16.5-8.101562-19.503906zm0 0" fill="#68544f"/><path d="m261.199219 368.597656-20.199219-7.789062v31.960937l8.800781 3.429688c7.800781 3.300781 16.5-.601563 19.5-8.101563 3.300781-7.796875-.601562-16.496094-8.101562-19.5zm0 0" fill="#53433f"/><path d="m187.597656 355.699219c2.703125-7.199219-.296875-15-6.597656-18.300781v25.5c2.703125-1.5 5.402344-3.898438 6.597656-7.199219zm0 0" fill="#5a5a5a"/><path d="m295.402344 398.300781c-2.703125 7.199219.296875 15 6.597656 18.300781v-25.503906c-2.699219 1.5-5.398438 3.902344-6.597656 7.203125zm0 0" fill="#444"/><g fill="#53433f"><path d="m351.5 396.800781c-2.398438-8.101562-10.800781-12.601562-18.898438-10.199219l-.601562.296876v31.203124l9.300781-2.703124c7.800781-2.398438 12.296875-10.800782 10.199219-18.597657zm0 0"/><path d="m422 365v15c0 6.601562-4.5 12.597656-10.800781 14.398438l-4.199219 1.203124-10.199219 2.996094c-1.199219.601563-2.699219.601563-4.199219.601563-6.300781 0-12.300781-4.199219-14.402343-10.5-2.398438-8.097657 2.101562-16.5 10.203125-18.898438l3.597656-.902343v-3.898438c0-8.398438 6.597656-15 15-15s15 6.601562 15 15zm0 0"/><path d="m422 287v15c0 8.398438-6.597656 15-15 15s-15-6.601562-15-15v-15c0-8.402344 6.597656-15 15-15s15 6.597656 15 15zm0 0"/></g><path d="m407 0c-57.898438 0-105 49.101562-105 107 0 20.398438 6 40.199219 16.800781 57.300781l75.601563 115.800781c2.699218 4.199219 7.5 6.898438 12.597656 6.898438s9.902344-2.703125 12.597656-6.898438l75.601563-115.800781c10.800781-17.101562 16.800781-36.902343 16.800781-57.300781 0-57.898438-47.097656-107-105-107zm0 152c-24.902344 0-45-20.097656-45-45s20.097656-45 45-45 45 20.097656 45 45-20.097656 45-45 45zm0 0" fill="#ff4b00"/><path d="m512 107c0 20.398438-6 40.199219-16.800781 57.300781l-75.601563 115.800781c-2.695312 4.199219-7.5 6.898438-12.597656 6.898438v-135c24.902344 0 45-20.097656 45-45s-20.097656-45-45-45v-62c57.902344 0 105 49.101562 105 107zm0 0" fill="#dd3400"/><path d="m131.5 357.199219c2.402344 7.800781 10.800781 12.601562 18.898438 10.199219l.601562-.296876v-31.203124l-9.300781 2.699218c-7.796875 2.402344-12.296875 10.800782-10.199219 18.601563zm0 0" fill="#68544f"/></svg>