<svg height="512pt" viewBox="0 0 512.00021 512" width="512pt" xmlns="http://www.w3.org/2000/svg"><path d="m166.675781 154.375-42.421875-42.421875 42.421875-42.425781c11.714844-11.714844 30.710938-11.714844 42.421875 0 11.71875 11.714844 11.71875 30.710937 0 42.425781zm0 0" fill="#3aaaff"/><path d="m400.003906 387.699219-42.421875-42.421875 42.421875-42.425782c11.714844-11.714843 30.707032-11.714843 42.421875 0 11.714844 11.71875 11.714844 30.710938 0 42.425782zm0 0" fill="#0095ff"/><path d="m113.945312 73.183594c-25.21875-13.414063-54.839843-12.773438-79.25 1.71875-4.183593 2.484375-6.898437 6.835937-7.292968 11.679687-.363282 4.402344 1.242187 8.722657 4.339844 11.820313.3125.308594.632812.609375.984374.902344l188.445313 157.675781 78.605469-85.066407zm0 0" fill="#25d9f8"/><path d="m438.773438 398.007812-96.914063-182.425781-82.613281 80.3125 153.40625 183.332031c.289062.351563.589844.671876.898437.984376 3.097657 3.09375 7.417969 4.703124 11.820313 4.339843 4.84375-.394531 9.195312-3.105469 11.679687-7.292969 14.492188-24.410156 15.132813-54.03125 1.722657-79.25zm0 0" fill="#00c0f1"/><path d="m493.054688 98.6875-325.6875 300.464844 26.996093 60.597656c5.101563 11.398438 2.699219 24.898438-6 33.597656l-14.398437 14.097656c-6.898438 7.199219-18.597656 5.398438-23.398438-2.699218l-54.292968-89.09375-89.09375-54.296875c-8.398438-5.097657-9.597657-16.496094-2.699219-23.394531l14.097656-14.398438c8.699219-8.699219 22.199219-11.101562 33.597656-6l60.59375 26.996094 300.496094-325.660156c10.796875-12.300782 26.097656-18.898438 41.394531-18.898438 14.398438 0 28.496094 5.398438 40.195313 17.097656 24.597656 24.597656 21.601562 60.894532-1.800781 81.589844zm0 0" fill="#ede9e8"/><path d="m493.054688 98.6875-325.6875 300.464844 26.996093 60.597656c5.101563 11.398438 2.699219 24.898438-6 33.597656l-14.398437 14.097656c-6.898438 7.199219-18.597656 5.398438-23.398438-2.699218l-54.292968-89.09375 398.582031-398.554688c24.597656 24.597656 21.601562 60.894532-1.800781 81.589844zm0 0" fill="#d2c5c2"/><path d="m126.566406 400.351562c0 3.902344-1.199218 7.800782-4.195312 10.5l-42.597656 42.597657c-5.699219 5.699219-15.296876 5.699219-21.296876 0-5.699218-6-5.699218-15.597657 0-21.300781l42.59375-42.59375c5.699219-5.699219 15.300782-5.699219 21.300782 0 2.996094 3 4.195312 6.898437 4.195312 10.796874zm0 0" fill="#25d9f8"/><path d="m126.566406 400.351562c0 3.902344-1.199218 7.800782-4.195312 10.5l-42.597656 42.597657c-5.699219 5.699219-15.296876 5.699219-21.296876 0l63.894532-63.894531c2.996094 3 4.195312 6.898437 4.195312 10.796874zm0 0" fill="#00c0f1"/></svg>